<?xml version="1.0" encoding="utf-8"?>
<svg viewBox="0 0 64 64" xmlns="http://www.w3.org/2000/svg">
  <defs>
    <style>.cls-1{fill:#e29375;}.cls-2{fill:#dbe4eb;}.cls-3{fill:#e7a990;}.cls-4{fill:#756d78;}.cls-5{fill:#f7f8fa;}</style>
  </defs>
  <g data-name="Puffer Fish" id="Puffer_Fish">
    <path class="cls-3" d="M54.25,29.31A2.37,2.37,0,0,0,53,24.74a1.62,1.62,0,0,1-1.8-.84A18.07,18.07,0,0,0,17,32.09a1,1,0,0,1-1,1l-6.35-.44a1.48,1.48,0,0,0-1.54,1.86L9.89,41.4a1.49,1.49,0,0,0,2.26.85l5-3.39a.84.84,0,0,1,1.3.4,18.05,18.05,0,0,0,5.44,7Z" id="path60099-6" style="fill: rgb(255, 210, 0);"/>
    <path class="cls-4" d="M41.43,23.34a2,2,0,1,0,1.4-2.42A2,2,0,0,0,41.43,23.34Z" id="path65809-7" style="fill: rgb(118, 109, 120);"/>
    <path class="cls-5" d="M54.25,29.31l-12.4,3.32-6.53,1.88C30.06,36.43,24.57,40,23.94,46.25A18.07,18.07,0,0,0,53.11,30.94,1.61,1.61,0,0,1,54.25,29.31Z" id="path65097-9" style=""/>
    <path class="cls-1" d="M 34.268 33.564 C 34.824 35.674 36.992 36.926 39.098 36.354 C 40.338 36.024 41.718 34.214 42.628 32.804 C 43.244 31.843 42.902 30.56 41.888 30.034 C 40.398 29.264 38.298 28.384 37.058 28.724 C 34.94 29.276 33.683 31.455 34.268 33.564 Z" id="path64640-9" style="fill: rgb(251, 191, 13);"/>
  </g>
</svg>